<svg width="162" height="25" viewBox="0 0 162 25" fill="none" xmlns="http://www.w3.org/2000/svg">
<path d="M11.8417 24.7622C3.94722 24.735 0.217778 22.285 0.408333 16.3506H7.18667C7.26833 17.9022 8.575 18.855 11.8417 18.8822C14.7272 18.9094 16.0611 18.0928 16.0611 17.0311C16.0611 16.2961 15.6528 15.5339 13.4206 15.2072L10.4806 14.7444C6.15222 14.0367 0.952778 13.5194 0.952778 7.66667C0.952778 3.14778 4.62778 0.371109 11.8961 0.371109C18.4567 0.371109 23.03 2.195 22.8939 8.72833H16.17C15.8978 7.20389 14.6183 6.25111 11.7328 6.25111C9.22833 6.25111 8.19389 7.01333 8.19389 8.04778C8.19389 8.70111 8.60222 9.49055 10.3444 9.76278L12.7672 10.1711C17.3133 10.9333 23.5472 11.0694 23.5472 17.3306C23.5472 22.3122 19.6817 24.7894 11.8417 24.7622ZM41.3893 1.13333H48.9298V24H41.3893V15.7244H32.5148V24H24.9743V1.13333H32.5148V9.40889H41.3893V1.13333ZM63.3955 24.7622C55.5282 24.7622 50.4377 19.8894 50.4377 12.5667C50.4377 5.24389 55.5282 0.371109 63.3955 0.371109C71.2627 0.371109 76.3532 5.24389 76.3532 12.5667C76.3532 19.8894 71.2627 24.7622 63.3955 24.7622ZM63.3955 18.2561C66.3899 18.2561 68.8671 16.1872 68.8671 12.5667C68.8671 8.94611 66.3899 6.87722 63.3955 6.87722C60.401 6.87722 57.9238 8.94611 57.9238 12.5667C57.9238 16.1872 60.401 18.2561 63.3955 18.2561ZM77.8662 24V1.13333H90.8512C97.0851 1.13333 100.787 3.91 100.787 10.0622C100.787 16.2144 97.0851 18.9911 90.8784 18.9911H85.4067V24H77.8662ZM85.4067 12.73H90.1979C92.0217 12.73 93.1923 11.8317 93.1923 10.0622C93.1923 8.29278 92.0217 7.39444 90.2251 7.39444H85.4067V12.73ZM104.56 24.4356C102.518 24.4356 100.803 22.7478 100.803 20.7333C100.803 18.7189 102.518 17.0311 104.56 17.0311C106.601 17.0311 108.316 18.7189 108.316 20.7333C108.316 22.7478 106.601 24.4356 104.56 24.4356ZM122.654 24.7622C114.951 24.7622 109.806 19.8894 109.806 12.5667C109.806 5.24389 114.951 0.371109 122.654 0.371109C128.235 0.371109 133.952 2.82111 134.714 10.5522H127.527C126.901 8.04778 125.132 6.87722 122.654 6.87722C119.66 6.87722 117.292 9.10944 117.292 12.5667C117.292 16.0239 119.66 18.2561 122.654 18.2561C125.132 18.2561 126.901 17.0856 127.527 14.5267H134.714C133.952 22.3122 128.289 24.7622 122.654 24.7622ZM149.05 24.7622C141.183 24.7622 136.092 19.8894 136.092 12.5667C136.092 5.24389 141.183 0.371109 149.05 0.371109C156.917 0.371109 162.008 5.24389 162.008 12.5667C162.008 19.8894 156.917 24.7622 149.05 24.7622ZM149.05 18.2561C152.044 18.2561 154.521 16.1872 154.521 12.5667C154.521 8.94611 152.044 6.87722 149.05 6.87722C146.055 6.87722 143.578 8.94611 143.578 12.5667C143.578 16.1872 146.055 18.2561 149.05 18.2561Z" fill="black"/>
</svg>
